<svg xmlns="http://www.w3.org/2000/svg" viewBox="0 0 512 512"><!--!Font Awesome Free 6.6.0 by @fontawesome - https://fontawesome.com License - https://fontawesome.com/license/free Copyright 2024 Fonticons, Inc.--><path d="M472.3 195.9l-67.1-23c-19.3-6.6-33.5-20.9-38.1-38.3L351.1 74.2c-11.6-43.8-76.6-57.1-110-22.6l-46.1 47.7c-13.3 13.7-33.5 20.9-54.2 19.3l-71.9-5.6c-52.1-4.1-86.9 44.9-59 82.8l38.5 52.4c11.1 15.1 12.8 33.9 4.6 50.2L24.6 355.4c-20.6 41.3 22.8 84.9 73.5 73.8l70-15.3c20.1-4.4 41.5 0 57.1 11.7l54.3 40.8c39.3 29.6 101 7.6 104.5-37.2l4.7-61.9c1.4-17.8 12.8-33.9 30.6-43l62-31.7c44.9-23 39.6-80.2-9-96.8z"/></svg>